<?xml version="1.0" encoding="iso-8859-1"?>
<!-- Generator: Adobe Illustrator 17.1.0, SVG Export Plug-In . SVG Version: 6.00 Build 0)  -->
<!DOCTYPE svg PUBLIC "-//W3C//DTD SVG 1.1//EN" "http://www.w3.org/Graphics/SVG/1.1/DTD/svg11.dtd">
<svg version="1.1" id="Capa_1" xmlns="http://www.w3.org/2000/svg" xmlns:xlink="http://www.w3.org/1999/xlink" x="0px" y="0px"
	 viewBox="0 0 478.646 478.646" style="enable-background:new 0 0 478.646 478.646;" xml:space="preserve">
<path d="M113.979,296.218c-32.164,0-58.331,26.263-58.331,58.545c0,32.164,26.167,58.331,58.331,58.331s58.331-26.167,58.331-58.331
	C172.309,322.481,146.142,296.218,113.979,296.218z M113.979,398.094c-23.893,0-43.331-19.438-43.331-43.331
	c0-24.011,19.438-43.545,43.331-43.545s43.331,19.534,43.331,43.545C157.309,378.656,137.871,398.094,113.979,398.094z
	 M227.978,37.356c-0.002-0.139-0.011-0.276-0.021-0.413c-0.008-0.115-0.016-0.229-0.029-0.342c-0.016-0.136-0.038-0.271-0.062-0.405
	c-0.02-0.112-0.039-0.224-0.063-0.335c-0.028-0.128-0.063-0.253-0.097-0.379c-0.031-0.114-0.063-0.227-0.099-0.338
	c-0.039-0.117-0.083-0.231-0.127-0.346c-0.044-0.115-0.088-0.229-0.137-0.34c-0.048-0.108-0.1-0.212-0.153-0.317
	c-0.056-0.112-0.112-0.224-0.173-0.333c-0.057-0.101-0.118-0.198-0.179-0.295c-0.067-0.106-0.133-0.212-0.204-0.315
	c-0.067-0.096-0.138-0.188-0.21-0.28c-0.075-0.097-0.149-0.194-0.228-0.287c-0.078-0.092-0.161-0.179-0.243-0.267
	c-0.081-0.086-0.161-0.172-0.245-0.254c-0.089-0.087-0.183-0.169-0.276-0.251c-0.086-0.076-0.172-0.152-0.261-0.223
	c-0.099-0.079-0.202-0.154-0.305-0.228c-0.092-0.066-0.183-0.133-0.278-0.195c-0.107-0.07-0.216-0.134-0.327-0.199
	c-0.099-0.058-0.198-0.116-0.3-0.17c-0.11-0.058-0.224-0.11-0.337-0.162c-0.109-0.05-0.218-0.101-0.329-0.146
	c-0.112-0.045-0.226-0.085-0.34-0.125c-0.12-0.042-0.24-0.083-0.362-0.119c-0.112-0.032-0.226-0.06-0.34-0.087
	c-0.129-0.031-0.259-0.062-0.391-0.086c-0.115-0.021-0.231-0.037-0.347-0.053c-0.133-0.018-0.267-0.036-0.402-0.047
	c-0.045-0.004-0.088-0.013-0.132-0.016c-0.084-0.006-0.167-0.001-0.25-0.004c-0.081-0.002-0.161-0.012-0.243-0.012
	c-14.726,0-22.497,3.036-29.354,5.714c-6.437,2.515-11.996,4.686-23.896,4.686s-17.458-2.171-23.896-4.686
	c-6.857-2.678-14.628-5.714-29.354-5.714c-14.724,0-22.494,3.036-29.35,5.714c-6.436,2.515-11.995,4.686-23.892,4.686
	c-11.898,0-17.457-2.171-23.893-4.686c-6.856-2.678-14.627-5.714-29.351-5.714c-0.083,0-0.164,0.01-0.247,0.012
	s-0.164-0.002-0.247,0.004c-0.045,0.003-0.088,0.012-0.132,0.016c-0.136,0.011-0.269,0.029-0.402,0.047
	c-0.116,0.016-0.233,0.032-0.347,0.053c-0.132,0.024-0.261,0.055-0.391,0.086c-0.114,0.028-0.228,0.055-0.34,0.087
	c-0.123,0.036-0.242,0.077-0.362,0.119c-0.114,0.04-0.228,0.079-0.34,0.125c-0.112,0.045-0.221,0.095-0.329,0.146
	c-0.114,0.052-0.227,0.105-0.337,0.162c-0.102,0.054-0.201,0.112-0.3,0.17c-0.11,0.064-0.22,0.129-0.327,0.199
	c-0.095,0.062-0.186,0.128-0.278,0.195c-0.103,0.074-0.206,0.149-0.305,0.228c-0.089,0.072-0.175,0.148-0.261,0.223
	c-0.094,0.082-0.187,0.164-0.276,0.251c-0.085,0.082-0.165,0.168-0.245,0.254c-0.082,0.088-0.165,0.176-0.243,0.267
	c-0.079,0.093-0.153,0.19-0.228,0.287c-0.071,0.093-0.143,0.185-0.21,0.28c-0.072,0.103-0.138,0.208-0.204,0.315
	c-0.061,0.098-0.123,0.195-0.179,0.295c-0.062,0.109-0.117,0.221-0.173,0.333c-0.052,0.105-0.105,0.209-0.153,0.317
	c-0.049,0.112-0.093,0.226-0.137,0.34c-0.044,0.115-0.088,0.229-0.127,0.346c-0.037,0.111-0.068,0.225-0.099,0.338
	c-0.035,0.125-0.069,0.251-0.097,0.379c-0.024,0.111-0.043,0.223-0.063,0.335c-0.023,0.134-0.046,0.268-0.062,0.405
	c-0.013,0.113-0.021,0.227-0.029,0.342c-0.01,0.137-0.019,0.274-0.021,0.413C0.006,37.4,0,37.442,0,37.486
	c0,0.082,0.01,0.162,0.012,0.243c0.003,0.084-0.002,0.166,0.004,0.25l20.917,317.165c0.007,0.182,0.016,0.363,0.036,0.541
	l0.414,6.272c3.207,48.618,43.886,86.703,92.61,86.703s89.402-38.084,92.609-86.703L227.969,37.98
	c0.006-0.084,0.001-0.167,0.004-0.25c0.003-0.082,0.012-0.161,0.012-0.243C227.985,37.442,227.979,37.4,227.978,37.356z
	 M191.634,360.97c-2.688,40.761-36.792,72.69-77.642,72.69s-74.953-31.929-77.642-72.69l-0.427-6.477
	c0.058-13.207,3.46-26.254,9.856-37.754c13.833-24.874,39.965-40.325,68.199-40.325c17.83,0,34.626,5.91,48.574,17.09
	c3.232,2.592,7.953,2.071,10.542-1.161c2.591-3.232,2.071-7.952-1.161-10.543c-16.399-13.146-36.982-20.387-57.956-20.387
	c-33.507,0-64.514,18.227-81.055,47.597L15.538,45.388c6.771,0.74,11.073,2.416,15.855,4.284c6.856,2.679,14.627,5.714,29.351,5.714
	c2.075,0,3.998-0.066,5.814-0.177v128.704c0,4.142,3.358,7.5,7.5,7.5s7.5-3.358,7.5-7.5V52.69c3.196-0.934,5.934-2.002,8.536-3.019
	c6.436-2.514,11.995-4.686,23.892-4.686c11.9,0,17.459,2.171,23.896,4.686c2.605,1.018,5.345,2.086,8.545,3.02v131.221
	c0,4.142,3.358,7.5,7.5,7.5s7.5-3.358,7.5-7.5V55.21c1.814,0.111,3.735,0.177,5.808,0.177c14.725,0,22.497-3.036,29.354-5.714
	c4.782-1.868,9.085-3.545,15.858-4.285L191.634,360.97z M364.64,296.218c-32.164,0-58.331,26.263-58.331,58.545
	c0,32.164,26.167,58.331,58.331,58.331s58.331-26.167,58.331-58.331C422.971,322.481,396.804,296.218,364.64,296.218z
	 M364.64,398.094c-23.893,0-43.331-19.438-43.331-43.331c0-24.011,19.438-43.545,43.331-43.545s43.331,19.534,43.331,43.545
	C407.971,378.656,388.533,398.094,364.64,398.094z M478.646,37.486c0-0.044-0.006-0.086-0.007-0.13
	c-0.002-0.139-0.011-0.276-0.021-0.413c-0.008-0.115-0.016-0.229-0.029-0.342c-0.016-0.136-0.038-0.271-0.062-0.405
	c-0.02-0.112-0.039-0.224-0.063-0.335c-0.028-0.128-0.063-0.253-0.097-0.379c-0.031-0.114-0.063-0.227-0.099-0.338
	c-0.039-0.117-0.083-0.231-0.127-0.346c-0.044-0.115-0.088-0.229-0.137-0.34c-0.048-0.108-0.1-0.212-0.153-0.317
	c-0.056-0.112-0.112-0.224-0.173-0.333c-0.057-0.101-0.118-0.198-0.179-0.295c-0.067-0.106-0.133-0.212-0.204-0.315
	c-0.067-0.096-0.138-0.188-0.21-0.28c-0.075-0.097-0.149-0.194-0.228-0.287c-0.078-0.092-0.161-0.179-0.243-0.267
	c-0.081-0.086-0.161-0.172-0.245-0.254c-0.089-0.087-0.183-0.169-0.276-0.251c-0.086-0.076-0.172-0.152-0.261-0.223
	c-0.099-0.079-0.202-0.154-0.305-0.228c-0.092-0.066-0.183-0.133-0.278-0.195c-0.107-0.07-0.216-0.134-0.327-0.199
	c-0.099-0.058-0.198-0.116-0.3-0.17c-0.11-0.058-0.224-0.11-0.337-0.162c-0.109-0.05-0.218-0.101-0.329-0.146
	c-0.112-0.045-0.226-0.085-0.34-0.125c-0.12-0.042-0.24-0.083-0.362-0.119c-0.112-0.032-0.226-0.06-0.34-0.087
	c-0.129-0.031-0.259-0.062-0.391-0.086c-0.115-0.021-0.231-0.037-0.347-0.053c-0.133-0.018-0.267-0.036-0.402-0.047
	c-0.045-0.004-0.088-0.013-0.132-0.016c-0.084-0.006-0.167-0.001-0.25-0.004c-0.081-0.002-0.161-0.012-0.243-0.012
	c-14.725,0-22.497,3.036-29.354,5.714c-6.437,2.515-11.996,4.686-23.896,4.686c-11.899,0-17.458-2.171-23.896-4.686
	c-6.857-2.678-14.628-5.714-29.354-5.714c-14.724,0-22.494,3.036-29.35,5.714c-6.436,2.515-11.995,4.686-23.892,4.686
	c-11.898,0-17.456-2.171-23.893-4.686c-6.856-2.678-14.627-5.714-29.351-5.714c-0.083,0-0.164,0.01-0.247,0.012
	c-0.083,0.003-0.164-0.002-0.247,0.004c-0.045,0.003-0.088,0.012-0.132,0.016c-0.136,0.011-0.269,0.029-0.402,0.047
	c-0.116,0.016-0.233,0.032-0.347,0.053c-0.132,0.024-0.261,0.055-0.391,0.086c-0.114,0.028-0.228,0.055-0.34,0.087
	c-0.123,0.036-0.242,0.077-0.362,0.119c-0.114,0.04-0.228,0.079-0.34,0.125c-0.112,0.045-0.221,0.095-0.329,0.146
	c-0.114,0.052-0.227,0.105-0.337,0.162c-0.102,0.054-0.201,0.112-0.3,0.17c-0.11,0.064-0.22,0.129-0.327,0.199
	c-0.095,0.062-0.186,0.128-0.278,0.195c-0.103,0.074-0.206,0.149-0.305,0.228c-0.089,0.072-0.175,0.148-0.261,0.223
	c-0.094,0.082-0.187,0.164-0.276,0.251c-0.085,0.082-0.165,0.168-0.245,0.254c-0.082,0.088-0.165,0.176-0.243,0.267
	c-0.079,0.093-0.153,0.19-0.228,0.287c-0.071,0.093-0.143,0.185-0.21,0.28c-0.072,0.103-0.138,0.208-0.204,0.315
	c-0.061,0.098-0.123,0.195-0.179,0.295c-0.062,0.109-0.117,0.221-0.173,0.333c-0.052,0.105-0.105,0.209-0.153,0.317
	c-0.049,0.112-0.093,0.226-0.137,0.34c-0.044,0.115-0.088,0.229-0.127,0.346c-0.037,0.111-0.068,0.225-0.099,0.338
	c-0.035,0.125-0.069,0.251-0.097,0.379c-0.024,0.111-0.043,0.223-0.063,0.335c-0.023,0.134-0.046,0.268-0.062,0.405
	c-0.013,0.113-0.021,0.227-0.029,0.342c-0.01,0.137-0.019,0.274-0.021,0.413c-0.001,0.044-0.007,0.086-0.007,0.13
	c0,0.082,0.01,0.162,0.012,0.243c0.003,0.084-0.002,0.166,0.004,0.25l20.916,317.134c0.007,0.194,0.017,0.387,0.038,0.577
	l0.413,6.266c3.207,48.618,43.885,86.703,92.609,86.703c48.724,0,89.402-38.084,92.609-86.703L478.63,37.98
	c0.006-0.084,0.001-0.167,0.004-0.25C478.637,37.648,478.646,37.568,478.646,37.486z M442.296,360.97
	c-2.688,40.761-36.793,72.69-77.642,72.69s-74.953-31.929-77.641-72.69l-0.428-6.482c0.059-13.205,3.461-26.25,9.856-37.749
	c13.833-24.874,39.965-40.325,68.199-40.325c17.83,0,34.626,5.91,48.574,17.091c3.232,2.591,7.953,2.071,10.543-1.161
	c2.591-3.232,2.071-7.952-1.161-10.543c-16.4-13.146-36.982-20.387-57.956-20.387c-33.507,0-64.514,18.227-81.054,47.597
	L266.199,45.388c6.772,0.74,11.074,2.416,15.855,4.285c6.856,2.678,14.627,5.714,29.351,5.714c2.075,0,3.998-0.066,5.814-0.177
	v128.704c0,4.142,3.358,7.5,7.5,7.5s7.5-3.358,7.5-7.5V52.69c3.196-0.934,5.934-2.002,8.536-3.019
	c6.436-2.514,11.995-4.686,23.892-4.686c11.9,0,17.459,2.171,23.896,4.686c2.605,1.018,5.345,2.086,8.545,3.02v131.221
	c0,4.142,3.358,7.5,7.5,7.5s7.5-3.358,7.5-7.5V55.21c1.814,0.111,3.735,0.177,5.808,0.177c14.726,0,22.497-3.036,29.354-5.714
	c4.782-1.868,9.085-3.545,15.858-4.285L442.296,360.97z"/>
<g>
</g>
<g>
</g>
<g>
</g>
<g>
</g>
<g>
</g>
<g>
</g>
<g>
</g>
<g>
</g>
<g>
</g>
<g>
</g>
<g>
</g>
<g>
</g>
<g>
</g>
<g>
</g>
<g>
</g>
</svg>
