<?xml version="1.0" ?><svg id="handpaddles" style="enable-background:new 0 0 100 100;" version="1.1" viewBox="0 0 100 100" xml:space="preserve" xmlns="http://www.w3.org/2000/svg" xmlns:xlink="http://www.w3.org/1999/xlink"><g><path d="M19.74842,94.8487c-0.28596,0-0.57487-0.02359-0.86279-0.07076c-1.40916-0.1533-2.68861-0.90603-3.60839-2.15993   C8.1312,83.1509,2.56531,70.80061,0.76505,60.40781C-3.09688,38.60316,8.04276,18.3148,25.5983,15.18792   c0.00196,0,0.00295,0,0.00491-0.00098C43.1165,12.12,60.51481,27.38885,64.3787,49.20626   c1.81796,10.48616,0.79204,23.99404-2.67288,35.2575c-0.38521,1.39343-1.27159,2.50976-2.61982,3.27035   c-1.5487,0.73308-2.96179,0.82938-4.31985,0.3518c-5.00281-1.5546-10.72101-1.85529-16.47754-0.84117   c-5.75948,1.0043-11.04628,3.23891-15.29047,6.46406C22.05182,94.45366,20.91781,94.8487,19.74842,94.8487z M26.19675,18.5585   C10.49946,21.35619,0.60291,39.86394,4.13662,59.81623c1.71379,9.89557,7.03499,21.67984,13.88622,30.75782   c0.36261,0.49527,0.794,0.7547,1.33251,0.81562c0.60828,0.09238,1.10256-0.03734,1.5487-0.38718   c4.70113-3.57301,10.5009-6.03168,16.79495-7.13031c6.28619-1.10649,12.56157-0.77042,18.14613,0.96696   c0.36752,0.12579,0.87458,0.22995,1.67252-0.14347c0.43631-0.25156,0.75077-0.63874,0.90406-1.19297   c3.32931-10.82715,4.31592-23.72381,2.58641-33.70585C57.47244,29.84161,41.85769,15.82174,26.19675,18.5585z"/><path d="M33.20324,69.09468c-5.02541,0-9.50151-3.6143-10.4154-8.73601c-0.49723-2.81242,0.13659-5.64057,1.78258-7.96952   c1.6283-2.30241,4.04175-3.8236,6.80013-4.28546c2.78982-0.49036,5.5993,0.12578,7.9027,1.73934   c2.30634,1.61454,3.84817,4.04372,4.34049,6.83846c0.49527,2.77115-0.12284,5.57571-1.74032,7.8909   c-1.61847,2.31911-4.04568,3.86782-6.83453,4.36112C34.42275,69.04161,33.80857,69.09468,33.20324,69.09468z M33.23567,51.36226   c-0.42353,0-0.851,0.03734-1.27748,0.11301c-0.0059,0.00098-0.01081,0.00197-0.01671,0.00295   c-1.85333,0.30856-3.4777,1.3335-4.57633,2.88613c-1.11436,1.57818-1.54379,3.4944-1.20771,5.39687   c0.69377,3.88158,4.41812,6.4896,8.28692,5.79976c1.88576-0.33215,3.52781-1.37968,4.62252-2.94803   c1.09372-1.56639,1.51136-3.45903,1.17725-5.33398c-0.33509-1.89853-1.37673-3.54157-2.9333-4.63234   C36.10509,51.80249,34.692,51.36226,33.23567,51.36226z"/><path d="M17.45485,80.9949c-0.7036,0-1.36297-0.43827-1.61257-1.13794c-5.71231-16.06285-2.94902-23.78867-0.72915-29.99722   c1.2932-3.61331,2.31421-6.46799,1.62633-10.38494c-0.16411-0.9306,0.45793-1.81796,1.38951-1.98108   c0.93256-0.16509,1.81795,0.45891,1.98108,1.38951c0.8451,4.80824-0.42746,8.36456-1.77373,12.12919   c-2.14322,5.99335-4.5724,12.78562,0.73111,27.69678c0.31642,0.8903-0.14838,1.86906-1.03869,2.18548   C17.83908,80.96346,17.64549,80.9949,17.45485,80.9949z"/><path d="M55.10615,74.37756c-0.93944,0-1.70593-0.75863-1.71183-1.70004c-0.1022-15.80146-4.70604-21.36342-8.76647-26.27091   c-2.55398-3.08561-4.96645-6.00023-5.81057-10.81142c-0.16411-0.9306,0.45793-1.81796,1.38951-1.98108   c0.93354-0.16116,1.81796,0.45793,1.98108,1.38951c0.68885,3.91892,2.62473,6.25867,5.07651,9.22047   c4.20684,5.08339,9.44157,11.40987,9.5536,28.42986c0.00589,0.94534-0.7547,1.71772-1.70004,1.72362   C55.11401,74.37756,55.11008,74.37756,55.10615,74.37756z"/><path d="M24.75811,37.41118c-0.51394,0-1.02199-0.23093-1.35905-0.67019c-0.57487-0.74978-0.43336-1.82385,0.31642-2.3997   c2.90873-2.23068,6.71955-2.88907,10.18742-1.75212c0.89915,0.29382,1.38852,1.25979,1.0947,2.15796   c-0.29185,0.89915-1.25979,1.39147-2.15796,1.0947c-2.39478-0.7832-5.02836-0.3292-7.04089,1.21557   C25.48824,37.29522,25.1217,37.41118,24.75811,37.41118z"/><path d="M80.22929,85.21452c-1.10846,0-2.23657-0.37931-3.25659-1.12614c-3.10133-2.38201-6.89447-4.27662-11.00206-5.50497   c-0.90603-0.26925-1.42096-1.22441-1.14973-2.12848c0.27122-0.90603,1.21655-1.42291,2.12848-1.14973   c4.50263,1.34431,8.67901,3.43545,12.07514,6.04347c0.48938,0.3577,0.99644,0.50117,1.52905,0.41076   c0.63284-0.07272,1.06522-0.33215,1.41505-0.80776c6.86302-9.09763,12.18324-20.8819,13.89507-30.76961   c3.53568-19.96114-6.36185-38.46889-22.06112-41.26461C65.07444,7.40511,56.09473,10.95258,49.1924,18.644   c-0.63088,0.7036-1.71281,0.76452-2.4164,0.1307c-0.7036-0.63088-0.76256-1.71379-0.1307-2.41641   c7.70813-8.58762,17.82381-12.53012,27.74886-10.8124c17.56438,3.12786,28.70403,23.41623,24.84013,45.22676   c-1.7983,10.38592-7.36222,22.73426-14.52201,32.22299c-0.908,1.23621-2.18941,1.98698-3.68897,2.15207   C80.76191,85.19291,80.49658,85.21452,80.22929,85.21452z"/><path d="M68.05392,59.37403c-0.83134,0-1.56049-0.60533-1.69021-1.4524c-0.14347-0.93354,0.49724-1.80813,1.43275-1.9516   c3.07578-0.47168,5.50693-2.82618,6.04936-5.85479c0.68787-3.90418-1.9398-7.64622-5.85676-8.33802   c-0.97678-0.14347-1.92015-0.11694-2.69057,0.08353c-0.92175,0.23584-1.85136-0.30463-2.09114-1.21951   c-0.24174-0.91389,0.30463-1.8494,1.21852-2.09016c1.23425-0.32526,2.61786-0.3744,4.11349-0.15133   c5.82138,1.0269,9.69313,6.54758,8.67705,12.31394c-0.80187,4.47413-4.37685,7.94495-8.9011,8.64069   C68.22687,59.36813,68.14039,59.37403,68.05392,59.37403z"/><path d="M82.54645,71.35484c-0.18867,0-0.38128-0.03145-0.56995-0.09827c-0.89227-0.31446-1.35806-1.29321-1.0436-2.18351   c5.26715-14.90919,2.85173-21.70244,0.71932-27.69678c-1.34038-3.7666-2.6041-7.32488-1.76096-12.13411   c0.16509-0.9306,1.0554-1.5487,1.98305-1.38951c0.92961,0.16312,1.55263,1.05048,1.3895,1.98108   c-0.68983,3.92089,0.32625,6.77851,1.61356,10.39575c2.2071,6.2066,4.95467,13.93044-0.71735,29.98347   C83.91237,70.91656,83.25201,71.35484,82.54645,71.35484z"/><path d="M58.75778,29.99491c-0.19064,0-0.38521-0.03243-0.57585-0.10023c-0.89031-0.31741-1.35413-1.29615-1.03574-2.18646   c0.26139-0.73406,0.46186-1.50153,0.60926-2.34663c0.16509-0.9306,1.04753-1.55165,1.98304-1.38853   c0.93158,0.16411,1.55263,1.05147,1.38951,1.98206c-0.18278,1.03673-0.43041,1.98599-0.75863,2.90283   C60.11977,29.5586,59.46138,29.99491,58.75778,29.99491z"/><path d="M75.24319,27.77012c-0.36359,0-0.72915-0.11596-1.03967-0.35376c-2.01449-1.54575-4.67951-2.01842-7.12638-1.26274   c-0.89817,0.27711-1.86119-0.22896-2.13831-1.13303c-0.27908-0.90308,0.22798-1.86119,1.13204-2.13929   c3.50423-1.078,7.32685-0.39995,10.21592,1.81894c0.75077,0.57585,0.89227,1.6509,0.31642,2.3997   C76.26517,27.5392,75.75811,27.77012,75.24319,27.77012z"/><path d="M19.74842,94.8487c-0.28596,0-0.57487-0.02359-0.86279-0.07076c-1.40916-0.1533-2.68861-0.90603-3.60839-2.15993   C8.1312,83.1509,2.56531,70.80061,0.76505,60.40781C-3.09688,38.60316,8.04276,18.3148,25.5983,15.18792   c0.00196,0,0.00295,0,0.00491-0.00098C43.1165,12.12,60.51481,27.38885,64.3787,49.20626   c1.81796,10.48616,0.79204,23.99404-2.67288,35.2575c-0.38521,1.39343-1.27159,2.50976-2.61982,3.27035   c-1.5487,0.73308-2.96179,0.82938-4.31985,0.3518c-5.00281-1.5546-10.72101-1.85529-16.47754-0.84117   c-5.75948,1.0043-11.04628,3.23891-15.29047,6.46406C22.05182,94.45366,20.91781,94.8487,19.74842,94.8487z M26.19675,18.5585   C10.49946,21.35619,0.60291,39.86394,4.13662,59.81623c1.71379,9.89557,7.03499,21.67984,13.88622,30.75782   c0.36261,0.49527,0.794,0.7547,1.33251,0.81562c0.60828,0.09238,1.10256-0.03734,1.5487-0.38718   c4.70113-3.57301,10.5009-6.03168,16.79495-7.13031c6.28619-1.10649,12.56157-0.77042,18.14613,0.96696   c0.36752,0.12579,0.87458,0.22995,1.67252-0.14347c0.43631-0.25156,0.75077-0.63874,0.90406-1.19297   c3.32931-10.82715,4.31592-23.72381,2.58641-33.70585C57.47244,29.84161,41.85769,15.82174,26.19675,18.5585z"/></g></svg>