<?xml version="1.0" encoding="iso-8859-1"?>
<!-- Generator: Adobe Illustrator 17.1.0, SVG Export Plug-In . SVG Version: 6.00 Build 0)  -->
<!DOCTYPE svg PUBLIC "-//W3C//DTD SVG 1.1//EN" "http://www.w3.org/Graphics/SVG/1.1/DTD/svg11.dtd">
<svg version="1.1" id="Capa_1" xmlns="http://www.w3.org/2000/svg" xmlns:xlink="http://www.w3.org/1999/xlink" x="0px" y="0px"
	 viewBox="0 0 476.801 476.801" style="enable-background:new 0 0 476.801 476.801;" xml:space="preserve">
<path d="M445.834,68.371c-19.681-17.069-45.76-24.742-71.549-21.062c-0.332,0.048-0.66,0.116-0.984,0.205
	c-0.879,0.241-88.385,24.106-129.947,24.106c-41.65,0-139.075-23.918-140.055-24.159c-0.259-0.064-0.521-0.115-0.785-0.153
	c-25.787-3.678-51.866,3.993-71.547,21.062C11.287,85.44,0,110.169,0,136.22v204.347c0,26.051,11.287,50.78,30.967,67.849
	c0.927,0.804,1.873,1.581,2.828,2.343c0.172,0.138,0.344,0.277,0.517,0.413c0.924,0.726,1.86,1.433,2.808,2.12
	c0.18,0.131,0.362,0.259,0.543,0.388c0.986,0.704,1.981,1.393,2.992,2.054c0.012,0.008,0.024,0.015,0.037,0.023
	c1.005,0.657,2.025,1.286,3.052,1.9c0.184,0.11,0.367,0.221,0.551,0.33c0.831,0.489,1.667,0.968,2.511,1.429
	c0.005,0.003,0.011,0.006,0.016,0.009c0.169,0.092,0.34,0.178,0.509,0.269c0.197,0.106,0.394,0.208,0.592,0.313
	c0.34,0.179,0.678,0.364,1.02,0.539c0.079,0.041,0.16,0.078,0.24,0.119c0.645,0.327,1.292,0.648,1.943,0.959
	c0.029,0.014,0.058,0.027,0.087,0.04c1.063,0.506,2.137,0.985,3.218,1.448c0.194,0.083,0.387,0.168,0.581,0.25
	c0.148,0.063,0.295,0.129,0.443,0.19c0.125,0.052,0.251,0.099,0.376,0.15c0.796,0.326,1.597,0.638,2.402,0.94
	c0.209,0.078,0.418,0.154,0.628,0.231c1.117,0.41,2.239,0.805,3.371,1.17c0.044,0.014,0.088,0.026,0.131,0.041
	c0.694,0.223,1.39,0.439,2.089,0.645c0.219,0.064,0.44,0.122,0.659,0.184c0.2,0.057,0.4,0.112,0.6,0.168
	c0.198,0.055,0.394,0.112,0.592,0.166c0.149,0.04,0.296,0.085,0.445,0.125c0.969,0.257,1.943,0.493,2.92,0.717
	c0.218,0.05,0.436,0.098,0.654,0.146c1.161,0.258,2.327,0.5,3.499,0.712c0.051,0.009,0.102,0.017,0.153,0.026
	c1.149,0.206,2.304,0.385,3.462,0.546c0.193,0.027,0.385,0.056,0.578,0.081c1.156,0.153,2.315,0.282,3.478,0.39
	c0.218,0.02,0.436,0.038,0.654,0.057c0.163,0.014,0.325,0.029,0.489,0.042c0.69,0.194,1.415,0.305,2.167,0.305
	c0.405,0,0.8-0.04,1.189-0.098c1.147,0.049,2.297,0.072,3.448,0.076c0.119,0,0.237,0.008,0.356,0.008
	c0.08,0,0.159-0.004,0.239-0.004c0.966-0.003,1.933-0.018,2.901-0.052c0.072-0.002,0.145-0.008,0.217-0.01
	c0.888-0.033,1.777-0.082,2.667-0.142c0.276-0.019,0.552-0.041,0.827-0.062c0.722-0.055,1.444-0.12,2.166-0.192
	c0.272-0.027,0.543-0.053,0.815-0.083c0.963-0.106,1.926-0.222,2.888-0.36c0.264-0.038,0.525-0.089,0.785-0.153
	c0.979-0.241,98.385-24.158,140.049-24.158c0.649,0,1.309,0.006,1.98,0.017c39.593,0.677,116.506,21.006,126.825,23.779
	c0.699,0.188,1.093,0.295,1.148,0.31c0.323,0.089,0.652,0.157,0.983,0.205c4.244,0.605,8.491,0.904,12.721,0.904
	c1.269,0,2.535-0.031,3.799-0.085c0.391,0.059,0.787,0.099,1.194,0.099c0.771,0,1.513-0.115,2.218-0.318
	c16.241-1.31,31.903-7.011,45.247-16.622c2.187-1.575,4.312-3.255,6.367-5.038c19.681-17.069,30.968-41.799,30.968-67.85V136.22
	C476.801,110.169,465.514,85.44,445.834,68.371z M41.45,80.458c16.076-13.943,37.347-20.262,58.417-17.363
	c7.878,1.933,100.854,24.526,143.486,24.526c42.468,0,125.665-22.358,133.677-24.539c21.041-2.86,42.269,3.454,58.32,17.376
	c16.174,14.027,25.45,34.353,25.45,55.762c0,20.026-7.873,38.755-22.168,52.738c-3.159,3.089-3.215,8.154-0.125,11.313
	c3.088,3.158,8.154,3.214,11.313,0.125c3.973-3.886,7.517-8.086,10.654-12.525c-1.719,18.908-10.647,36.513-25.124,49.069
	c-10.161,8.813-22.401,14.568-35.351,16.887v-12.092c0-4.418-3.582-8-8-8s-8,3.582-8,8v13.178c-2.321-0.094-4.646-0.28-6.969-0.597
	c-8.013-2.181-91.214-24.539-133.682-24.539c-42.629,0-135.594,22.59-143.48,24.525c-2.356,0.324-4.715,0.514-7.068,0.61v-13.177
	c0-4.418-3.582-8-8-8s-8,3.582-8,8v12.091c-12.95-2.318-25.189-8.073-35.351-16.886c-14.481-12.559-23.409-30.171-25.125-49.084
	c4.163,5.923,9.064,11.376,14.641,16.213c19.681,17.07,45.764,24.742,71.549,21.062c0.264-0.038,0.525-0.089,0.785-0.153
	c0.979-0.241,98.385-24.158,140.049-24.158c41.543,0,129.073,23.866,129.953,24.107c0.323,0.089,0.652,0.157,0.984,0.205
	c4.294,0.613,8.59,0.919,12.869,0.919c6.523,0,13.007-0.712,19.385-2.133c4.313-0.961,7.029-5.236,6.068-9.549
	c-0.962-4.313-5.239-7.028-9.549-6.068c-8.514,1.898-17.268,2.253-26.029,1.059c-8.003-2.178-91.211-24.54-133.682-24.54
	c-42.629,0-135.594,22.59-143.48,24.525c-21.071,2.894-42.342-3.419-58.419-17.362C25.276,177.954,16,157.629,16,136.22
	S25.276,94.485,41.45,80.458z M92.801,270.942c3.234-0.108,6.477-0.391,9.715-0.854c0.264-0.038,0.525-0.089,0.785-0.153
	c0.979-0.241,98.385-24.158,140.049-24.158c41.544,0,129.073,23.866,129.953,24.106c0.323,0.089,0.652,0.157,0.983,0.205
	c3.239,0.462,6.48,0.743,9.714,0.851v93.534c-2.321-0.094-4.646-0.28-6.969-0.597c-8.012-2.181-91.214-24.54-133.682-24.54
	c-42.629,0-135.594,22.59-143.48,24.525c-2.356,0.324-4.715,0.514-7.068,0.61V270.942z M30.967,249.026
	c13.1,11.362,29.037,18.556,45.834,21.014v93.344c-12.95-2.318-25.189-8.073-35.351-16.886C25.276,332.472,16,312.147,16,290.737
	v-58.399C20.233,238.444,25.242,244.061,30.967,249.026z M16.037,341.953c4.225,6.084,9.222,11.683,14.929,16.633
	c13.1,11.362,29.037,18.556,45.834,21.014v33.615c-12.95-2.318-25.189-8.074-35.351-16.887
	C25.627,382.605,16.43,362.85,16.037,341.953z M282.538,392.928c-0.829-0.13-1.655-0.257-2.479-0.381
	c-1.318-0.199-2.63-0.393-3.933-0.578c-0.09-0.013-0.181-0.026-0.271-0.039c-2.371-0.335-4.711-0.645-7.015-0.928
	c-0.793-0.098-1.581-0.191-2.365-0.282c-1.838-0.212-3.651-0.408-5.43-0.581c-0.028-0.003-0.057-0.006-0.086-0.009
	c0,0-0.001,0-0.001,0c-0.15-0.015-0.296-0.027-0.444-0.041c-1.524-0.145-3.024-0.275-4.496-0.388
	c-0.68-0.052-1.356-0.102-2.024-0.147c-0.224-0.015-0.442-0.027-0.664-0.041c-3.514-0.225-6.86-0.348-9.98-0.348
	c-2.266,0-4.683,0.067-7.213,0.188c-1.712,0.082-3.479,0.19-5.296,0.322c-1.68,0.123-3.4,0.265-5.16,0.427
	c-0.138,0.013-0.273,0.024-0.412,0.037c-1.472,0.138-2.973,0.291-4.494,0.454c-0.194,0.021-0.384,0.04-0.578,0.061
	c-0.051,0.005-0.104,0.012-0.155,0.018c-1.671,0.183-3.367,0.379-5.087,0.59c-0.205,0.025-0.414,0.052-0.62,0.078
	c-1.284,0.159-2.581,0.326-3.888,0.499c-0.826,0.109-1.656,0.222-2.49,0.336c-1.873,0.258-3.765,0.528-5.674,0.81
	c-0.936,0.138-1.875,0.28-2.817,0.423c-8.709,1.328-17.688,2.88-26.531,4.525c-0.259,0.048-0.517,0.096-0.776,0.145
	c-20.377,3.807-39.943,8.083-53.657,11.218c-0.56,0.128-1.11,0.254-1.65,0.378c-0.668,0.154-1.32,0.304-1.956,0.451
	c-7.933,1.834-13.37,3.157-15.028,3.564c-0.332,0.046-0.664,0.069-0.996,0.11c-2.025,0.25-4.05,0.419-6.072,0.501v-33.8
	c3.234-0.108,6.477-0.391,9.715-0.854c0.264-0.038,0.525-0.089,0.785-0.153c0.979-0.241,98.385-24.158,140.049-24.158
	c41.543,0,129.073,23.866,129.953,24.107c0.323,0.089,0.652,0.157,0.984,0.205c3.238,0.462,6.479,0.743,9.713,0.851v33.8
	c-2.321-0.094-4.646-0.28-6.969-0.596C371.095,412.088,323.878,399.396,282.538,392.928z M435.351,396.328
	c-10.161,8.813-22.401,14.567-35.351,16.885V379.59c16.797-2.459,32.734-9.642,45.834-21.004
	c5.708-4.95,10.704-10.549,14.929-16.633C460.371,362.851,451.174,382.605,435.351,396.328z M460.801,290.737
	c0,21.409-9.276,41.733-25.45,55.762c-10.162,8.813-22.401,14.569-35.351,16.888v-93.358c16.796-2.459,32.735-9.642,45.833-21.002
	c5.725-4.966,10.734-10.583,14.968-16.689V290.737z"/>
<g>
</g>
<g>
</g>
<g>
</g>
<g>
</g>
<g>
</g>
<g>
</g>
<g>
</g>
<g>
</g>
<g>
</g>
<g>
</g>
<g>
</g>
<g>
</g>
<g>
</g>
<g>
</g>
<g>
</g>
</svg>
