<?xml version="1.0" encoding="iso-8859-1"?>
<!-- Generator: Adobe Illustrator 19.0.0, SVG Export Plug-In . SVG Version: 6.00 Build 0)  -->
<svg version="1.1" id="Layer_1" xmlns="http://www.w3.org/2000/svg" xmlns:xlink="http://www.w3.org/1999/xlink" x="0px" y="0px"
	 viewBox="0 0 348.576 348.576" style="enable-background:new 0 0 348.576 348.576;" xml:space="preserve">
<g id="XMLID_243_">
	<g>
		<path d="M301.788,82.131V28.577C301.788,12.82,288.967,0,273.21,0s-28.577,12.82-28.577,28.577v47.5H69.288
			c-24.813,0-45,20.187-45,45v34.203c0,41.794,34.002,75.797,75.797,75.797c11.623,0,27.916-4.527,36.568-13.18l24.706-24.706
			c4.858-4.858,9.208-7.322,12.929-7.322s8.07,2.464,12.929,7.322l24.706,24.706c7.734,7.733,21.561,12.16,32.712,13.016v41.299
			c0,10.293-8.09,18.907-18.034,19.202c-5.063,0.152-9.87-1.715-13.514-5.253c-2.797-2.715-4.62-6.136-5.323-9.865
			c4.941-6.232,7.903-14.102,7.903-22.655c0-20.147-16.391-36.539-36.539-36.539c-20.147,0-36.538,16.391-36.538,36.539
			c0,8.474,2.908,16.277,7.767,22.482c0.818,19.181,8.743,37.063,22.542,50.653c14.302,14.086,33.124,21.801,53.12,21.8
			c0.394,0,0.792-0.003,1.187-0.009c41.125-0.627,74.583-35.055,74.583-76.746v-62.709c13.883-13.746,22.5-32.8,22.5-53.833v-34.203
			C324.288,104.458,315.224,89.924,301.788,82.131z M264.634,28.577c0-4.729,3.848-8.577,8.577-8.577s8.577,3.848,8.577,8.577
			v47.569c-0.028-0.002-0.057-0.001-0.085-0.002c-0.8-0.043-1.605-0.067-2.415-0.067h-14.654V28.577z M162.589,253.642
			c0-9.12,7.419-16.539,16.538-16.539c9.12,0,16.539,7.419,16.539,16.539s-7.419,16.539-16.539,16.539
			C170.008,270.181,162.589,262.762,162.589,253.642z M281.788,271.823c0,30.829-24.623,56.286-54.887,56.748
			c-15.06,0.226-29.23-5.468-39.968-16.043c-6.602-6.502-11.372-14.337-14.075-22.897c2.039,0.354,4.131,0.549,6.269,0.549
			c4.029,0,7.904-0.665,11.532-1.875c1.981,4.515,4.836,8.655,8.496,12.208c7.558,7.337,17.515,11.206,28.038,10.894
			c20.645-0.612,37.441-18.194,37.441-39.193v-42.867c0.894-0.193,1.782-0.408,2.667-0.633c0.096-0.025,0.192-0.051,0.288-0.076
			c4.909-1.272,9.662-3.023,14.199-5.248V271.823z M283.988,198.297c-0.013,0.011-0.025,0.022-0.038,0.032
			c-4.819,3.976-10.313,7.161-16.284,9.352c-0.009,0.003-0.018,0.006-0.027,0.01c-0.799,0.293-1.607,0.565-2.423,0.821
			c-0.083,0.026-0.166,0.053-0.249,0.079c-0.825,0.256-1.657,0.493-2.498,0.711c-0.021,0.005-0.042,0.012-0.063,0.017
			c-0.794,0.205-1.597,0.386-2.404,0.556c-0.368,0.077-0.739,0.144-1.11,0.214c-0.411,0.078-0.824,0.153-1.239,0.222
			c-0.474,0.078-0.949,0.151-1.426,0.217c-0.289,0.04-0.579,0.075-0.87,0.111c-0.548,0.067-1.096,0.134-1.648,0.185l-0.038,0.003
			c-1.708,0.158-3.435,0.25-5.183,0.25c-8.046,0-18.526-3.422-22.426-7.323l-24.706-24.706c-8.869-8.869-17.724-13.18-27.071-13.18
			c-9.347,0-18.202,4.312-27.071,13.18l-24.706,24.706c-3.9,3.901-14.38,7.323-22.426,7.323c-30.767,0-55.797-25.03-55.797-55.797
			v-34.203c0-13.785,11.215-25,25-25h175.346h34.654c0.708,0,1.411,0.037,2.112,0.096c0.088,0.007,0.176,0.012,0.264,0.02
			c0.668,0.063,1.331,0.157,1.989,0.273c0.105,0.019,0.211,0.036,0.316,0.057c0.652,0.124,1.299,0.274,1.94,0.451
			c0.098,0.027,0.195,0.055,0.293,0.083c0.642,0.185,1.278,0.394,1.906,0.631c9.445,3.573,16.181,12.707,16.181,23.389v34.203h0.001
			C304.288,172.574,296.379,188.054,283.988,198.297z"/>
	</g>
</g>
<g>
</g>
<g>
</g>
<g>
</g>
<g>
</g>
<g>
</g>
<g>
</g>
<g>
</g>
<g>
</g>
<g>
</g>
<g>
</g>
<g>
</g>
<g>
</g>
<g>
</g>
<g>
</g>
<g>
</g>
</svg>
