<?xml version="1.0" encoding="iso-8859-1"?><svg xmlns="http://www.w3.org/2000/svg" xml:space="preserve" viewBox="0 0 20.306 20.306"><g fill=""><path d="M7.816 10.297c1.197.148 2.314.529 3.35 1.008.503.235 1.04.542 1.461.782.422.248.85.473 1.282.691l-2.624-5.195-.555-.975-1.959-3.431c-.276-.484-.892-.653-1.377-.377-.486.28-.654.895-.376 1.38l2.166 3.797-.555.492-3.31 1.888-.077.042c.855-.18 1.736-.207 2.574-.102z"/><circle cx="14.955" cy="8.194" r="2.179"/><path d="M20.161 12.613c-.309 1.027-.797 1.98-1.492 2.473-.677.492-1.448.523-2.298.352-.848-.176-1.726-.541-2.586-.975-.436-.219-.864-.443-1.288-.693-.42-.24-.959-.547-1.461-.781-1.035-.479-2.152-.861-3.351-1.01-1.189-.148-2.469-.051-3.623.408-1.158.451-2.138 1.242-2.817 2.174C.578 15.502.116 16.547 0 17.639c1.297-1.719 2.953-2.951 4.67-3.238 1.712-.314 3.495.201 5.224 1.014.451.205.83.412 1.326.678.5.25 1.01.494 1.535.699 1.054.406 2.188.74 3.438.748.62.002 1.278-.084 1.901-.342.625-.25 1.185-.695 1.55-1.227.714-1.092.787-2.307.517-3.358z"/></g></svg>