<?xml version="1.0" encoding="iso-8859-1"?>
<!-- Generator: Adobe Illustrator 17.1.0, SVG Export Plug-In . SVG Version: 6.00 Build 0)  -->
<!DOCTYPE svg PUBLIC "-//W3C//DTD SVG 1.1//EN" "http://www.w3.org/Graphics/SVG/1.1/DTD/svg11.dtd">
<svg version="1.1" id="Capa_1" xmlns="http://www.w3.org/2000/svg" xmlns:xlink="http://www.w3.org/1999/xlink" x="0px" y="0px"
	 viewBox="0 0 420 420" style="enable-background:new 0 0 420 420;" xml:space="preserve">
<g>
	<path style="fill:none;" d="M161.759,242.576v64.774c8.456,2.251,14.483,5.865,20.045,9.202c7.984,4.791,14.291,8.575,28.188,8.575
		c13.897,0,20.204-3.784,28.188-8.575c5.458-3.275,11.372-6.809,19.579-9.067v-64.908H161.759z"/>
	<rect x="161.759" y="154.576" style="fill:none;" width="96" height="68"/>
	<path d="M161.759,307.35v-64.774h96v64.908c5.215-1.435,11.348-2.358,18.9-2.358c0.378,0,0.729,0.017,1.1,0.021V95.837
		c0-33.615,27.348-60.964,60.964-60.964c33.616,0,60.964,27.349,60.964,60.964c0,5.522,4.477,10,10,10c5.523,0,10-4.478,10-10
		c0-44.644-36.32-80.964-80.964-80.964c-44.644,0-80.964,36.32-80.964,80.964v38.739h-96V95.837
		c0-33.615,27.348-60.964,60.964-60.964c7.933,0,15.645,1.499,22.923,4.454c5.115,2.079,10.949-0.385,13.028-5.502
		c2.078-5.117-0.385-10.95-5.502-13.027c-9.68-3.932-19.924-5.925-30.449-5.925c-44.643,0-80.964,36.32-80.964,80.964v209.321
		c0.524-0.009,1.029-0.031,1.567-0.031C150.65,305.127,156.648,305.99,161.759,307.35z M161.759,154.576h96v68h-96V154.576z"/>
	<path style="fill:#6ECCAE;" d="M10,325.127c13.896,0,20.203,3.784,28.188,8.575c8.925,5.355,19.041,11.425,38.477,11.425
		c19.436,0,29.551-6.07,38.476-11.425c7.984-4.791,14.291-8.575,28.186-8.575c13.896,0,20.204,3.784,28.188,8.575
		c8.925,5.355,19.042,11.425,38.478,11.425c19.436,0,29.553-6.069,38.479-11.425c7.985-4.791,14.292-8.575,28.189-8.575
		c13.898,0,20.205,3.784,28.191,8.575c8.926,5.355,19.042,11.425,38.479,11.425s29.554-6.069,38.48-11.425
		c7.985-4.791,14.293-8.575,28.191-8.575c5.523,0,10-4.478,10-10c0-5.522-4.477-10-10-10c-19.438,0-29.554,6.069-38.48,11.425
		c-7.985,4.791-14.292,8.575-28.19,8.575c-13.898,0-20.205-3.784-28.19-8.575c-8.752-5.251-18.672-11.174-37.38-11.403
		c-0.371-0.004-0.722-0.021-1.1-0.021c-7.552,0-13.685,0.923-18.9,2.358c-8.206,2.258-14.121,5.792-19.579,9.067
		c-7.985,4.791-14.291,8.575-28.188,8.575c-13.896,0-20.203-3.784-28.188-8.575c-5.563-3.337-11.59-6.951-20.045-9.202
		c-5.112-1.36-11.11-2.223-18.433-2.223c-0.538,0-1.043,0.021-1.567,0.031c-18.401,0.322-28.231,6.188-36.909,11.394
		c-7.984,4.791-14.291,8.575-28.186,8.575c-13.896,0-20.203-3.784-28.187-8.575c-8.925-5.355-19.042-11.425-38.478-11.425
		c-5.523,0-10,4.478-10,10C0,320.649,4.477,325.127,10,325.127z"/>
	<path style="fill:#6ECCAE;" d="M410,365.127c-19.438,0-29.554,6.069-38.48,11.425c-7.985,4.791-14.292,8.575-28.19,8.575
		c-13.898,0-20.205-3.784-28.19-8.575c-8.926-5.355-19.042-11.425-38.48-11.425c-19.437,0-29.553,6.069-38.479,11.425
		c-7.985,4.791-14.291,8.575-28.188,8.575c-13.896,0-20.203-3.784-28.188-8.575c-8.925-5.355-19.042-11.425-38.478-11.425
		c-19.436,0-29.551,6.07-38.476,11.425c-7.984,4.791-14.291,8.575-28.186,8.575c-13.896,0-20.203-3.784-28.187-8.575
		c-8.925-5.355-19.042-11.425-38.478-11.425c-5.523,0-10,4.478-10,10c0,5.522,4.477,10,10,10c13.896,0,20.203,3.784,28.188,8.575
		c8.925,5.355,19.041,11.425,38.477,11.425c19.436,0,29.551-6.07,38.476-11.425c7.984-4.791,14.291-8.575,28.186-8.575
		c13.896,0,20.204,3.784,28.188,8.575c8.925,5.355,19.042,11.425,38.478,11.425c19.436,0,29.553-6.069,38.479-11.425
		c7.985-4.791,14.292-8.575,28.189-8.575c13.898,0,20.205,3.784,28.191,8.575c8.926,5.355,19.042,11.425,38.479,11.425
		s29.554-6.069,38.48-11.425c7.985-4.791,14.293-8.575,28.191-8.575c5.523,0,10-4.478,10-10
		C420,369.604,415.523,365.127,410,365.127z"/>
</g>
<g>
</g>
<g>
</g>
<g>
</g>
<g>
</g>
<g>
</g>
<g>
</g>
<g>
</g>
<g>
</g>
<g>
</g>
<g>
</g>
<g>
</g>
<g>
</g>
<g>
</g>
<g>
</g>
<g>
</g>
</svg>
