<?xml version="1.0" encoding="iso-8859-1"?>
<!-- Generator: Adobe Illustrator 19.0.0, SVG Export Plug-In . SVG Version: 6.00 Build 0)  -->
<svg version="1.1" id="Layer_1" xmlns="http://www.w3.org/2000/svg" xmlns:xlink="http://www.w3.org/1999/xlink" x="0px" y="0px"
	 viewBox="0 0 512 512" style="enable-background:new 0 0 512 512;" xml:space="preserve">
<g>
	<path style="fill:#25B6D2;" d="M512,426.208c-22.736,0-39.6-11.248-55.904-22.112c-18.24-12.176-35.456-23.664-63.472-23.664
		c-23.936,0-36.992,8.352-53.52,18.96c-19.616,12.56-41.84,26.816-83.104,26.816c-40.096,0-61.808-13.632-80.992-25.664
		c-17.2-10.8-32.048-20.112-60.944-20.112c-36.736,0-56.592,12.672-74.128,23.856C27.232,412.416,15.216,420.096,0,420.096v-32
		c5.872,0,13.312-4.752,22.736-10.768c19.104-12.192,45.264-28.88,91.344-28.88c38.096,0,59.264,13.28,77.936,24.992
		c17.76,11.136,33.088,20.768,63.984,20.768c31.904,0,48.384-10.56,65.84-21.744c17.568-11.264,37.472-24.016,70.784-24.016
		c37.696,0,61.84,16.096,81.232,29.024c14.016,9.344,25.088,16.736,38.144,16.736V426.208z"/>
	<path style="fill:#25B6D2;" d="M512,367.248c-22.736,0-39.6-11.248-55.904-22.112c-18.24-12.176-35.456-23.664-63.472-23.664
		c-23.936,0-36.992,8.352-53.52,18.96c-19.6,12.56-41.84,26.816-83.104,26.816c-40.096,0-61.808-13.632-80.992-25.664
		c-17.2-10.8-32.032-20.112-60.928-20.112c-36.736,0-56.592,12.672-74.128,23.856C27.232,353.456,15.216,361.12,0,361.12v-32
		c5.872,0,13.312-4.752,22.736-10.768C41.84,306.16,68,289.472,114.08,289.472c38.096,0,59.264,13.28,77.936,24.992
		c17.76,11.136,33.088,20.768,63.984,20.768c31.904,0,48.384-10.56,65.84-21.744c17.568-11.264,37.472-24.016,70.784-24.016
		c37.696,0,61.84,16.096,81.232,29.024c14.016,9.344,25.088,16.736,38.144,16.736V367.248z"/>
</g>
<g>
	<rect x="315.504" y="85.792" style="fill:#2C3E50;" width="32" height="168"/>
	<rect x="164.496" y="85.792" style="fill:#2C3E50;" width="32" height="168"/>
	<rect x="177.44" y="122.288" style="fill:#2C3E50;" width="156.992" height="32"/>
	<rect x="177.44" y="185.296" style="fill:#2C3E50;" width="156.992" height="32"/>
</g>
<g>
</g>
<g>
</g>
<g>
</g>
<g>
</g>
<g>
</g>
<g>
</g>
<g>
</g>
<g>
</g>
<g>
</g>
<g>
</g>
<g>
</g>
<g>
</g>
<g>
</g>
<g>
</g>
<g>
</g>
</svg>
